<svg xmlns="http://www.w3.org/2000/svg" width="760" height="174" viewBox="0 0 760 174" font-family="JetBrains Mono, ui-monospace, monospace">
<style>.t{font-size:13px;fill:#c9d1d9;font-weight:600}.s{font-size:10px;fill:#6e7681}.k{font-size:11px;fill:#c9d1d9}.p{font-size:11px;fill:#8b949e}</style>
<text x="24" y="30" class="t">Languages by bytes written</text>
<text x="736" y="30" class="s" text-anchor="end">16 repositories · 6 private · all counted</text>
<clipPath id="bar"><rect x="24" y="64" width="712" height="14" rx="7"/></clipPath>
<g clip-path="url(#bar)">
<rect x="24.00" y="64" width="293.54" height="14" fill="#dea584"/>
<rect x="316.94" y="64" width="171.74" height="14" fill="#f1e05a"/>
<rect x="488.08" y="64" width="130.12" height="14" fill="#44a51c"/>
<rect x="617.60" y="64" width="37.32" height="14" fill="#3572A5"/>
<rect x="654.33" y="64" width="17.60" height="14" fill="#012456"/>
<rect x="671.33" y="64" width="17.29" height="14" fill="#e34c26"/>
<rect x="688.02" y="64" width="14.71" height="14" fill="#89e051"/>
<rect x="702.13" y="64" width="13.98" height="14" fill="#f34b7d"/>
<rect x="715.51" y="64" width="21.09" height="14" fill="#6e7681"/>
</g>
<circle cx="29" cy="106" r="5" fill="#dea584"/>
<text x="42" y="110" class="k">Rust</text>
<text x="80" y="110" class="p">41.1%</text>
<circle cx="266" cy="106" r="5" fill="#f1e05a"/>
<text x="279" y="110" class="k">JavaScript</text>
<text x="359" y="110" class="p">24.0%</text>
<circle cx="503" cy="106" r="5" fill="#44a51c"/>
<text x="516" y="110" class="k">QML</text>
<text x="547" y="110" class="p">18.2%</text>
<circle cx="29" cy="128" r="5" fill="#3572A5"/>
<text x="42" y="132" class="k">Python</text>
<text x="94" y="132" class="p">5.2%</text>
<circle cx="266" cy="128" r="5" fill="#012456"/>
<text x="279" y="132" class="k">PowerShell</text>
<text x="359" y="132" class="p">2.4%</text>
<circle cx="503" cy="128" r="5" fill="#e34c26"/>
<text x="516" y="132" class="k">HTML</text>
<text x="554" y="132" class="p">2.3%</text>
<circle cx="29" cy="150" r="5" fill="#89e051"/>
<text x="42" y="154" class="k">Shell</text>
<text x="87" y="154" class="p">2.0%</text>
<circle cx="266" cy="150" r="5" fill="#f34b7d"/>
<text x="279" y="154" class="k">C++</text>
<text x="310" y="154" class="p">1.9%</text>
<circle cx="503" cy="150" r="5" fill="#6e7681"/>
<text x="516" y="154" class="k">Other</text>
<text x="561" y="154" class="p">2.9%</text>
</svg>
