<svg xmlns="http://www.w3.org/2000/svg" viewBox="0 0 64 64" role="img" aria-labelledby="title">
  <title id="title">Nova smiling mascot blinking</title>
  <path d="M32 4 39 21 58 23 43 36 48 56 32 46 15 56 20 36 6 23 25 21Z"
        fill="#0d1117" stroke="#0d1117" stroke-width="4.6"
        stroke-linejoin="round"/>
  <path d="M32 4 39 21 58 23 43 36 48 56 32 46 15 56 20 36 6 23 25 21Z"
        fill="#0d1117" stroke="#f0f3f6" stroke-width="2.4"
        stroke-linejoin="round"/>
  <path d="M32 5 39 21 33 28Z" fill="#768390" fill-opacity=".82"/>
  <path d="M25 21 33 28 20 36M39 21 33 28 43 36M33 28 32 46"
        fill="none" stroke="#768390" stroke-width="1.25"
        stroke-linecap="round" stroke-linejoin="round"/>
  <g fill="none" stroke="#f0f3f6" stroke-linecap="round">
    <path d="M25.5 30.5H29M36 30.5h3.5" stroke-width="1.7"/>
    <path d="M28.4 33.2c.8 3.6 7.4 3.6 8.2 0" stroke-width="1.7"/>
    <path d="M53 8v6M50 11h6" stroke="#0d1117" stroke-width="3.3"/>
    <path d="M53 8v6M50 11h6" stroke-width="1.5"/>
  </g>
</svg>
